<?xml version="1.0" encoding="utf-8"?>
<!-- Generator: Adobe Illustrator 17.0.0, SVG Export Plug-In . SVG Version: 6.00 Build 0)  -->
<!DOCTYPE svg PUBLIC "-//W3C//DTD SVG 1.1 Tiny//EN" "http://www.w3.org/Graphics/SVG/1.1/DTD/svg11-tiny.dtd">
<svg version="1.1" baseProfile="tiny" id="Layer_1" xmlns="http://www.w3.org/2000/svg" xmlns:xlink="http://www.w3.org/1999/xlink"
	 x="0px" y="0px" width="54px" height="100px" viewBox="0 0 54 100" xml:space="preserve">
<g>
	<path fill="#FFFFFF" d="M54,69.17c-0.177-0.137-11.099-14.482-11.186-14.628c0.182-0.126,10.978-6.289,11.186-6.389
		C54,55.159,54,62.165,54,69.17z"/>
	<path fill="#FFFFFF" d="M0,17.512c3.722,2.108,7.444,4.217,11.222,6.357C10.992,24.213,0.256,38.291,0,38.529
		C0,31.523,0,24.518,0,17.512z"/>
	<path fill="#FFFFFF" d="M2.183,100c5.924-7.855,11.848-15.709,17.79-23.587c0.769-0.102,28.259-3.171,29.643-3.307
		C49.617,73.106,2.439,100.008,2.183,100z"/>
	<path fill="#FFFFFF" d="M49.59,11.988c-9.319,5.295-18.637,10.589-27.965,15.889c-2.621-1.496-5.196-2.966-7.853-4.482
		c2.089-2.771,4.121-5.466,6.22-8.25c9.811-1.115,19.671-2.235,29.531-3.355C49.545,11.855,49.567,11.922,49.59,11.988z"/>
	<path fill="#FFFFFF" d="M4.193,42.455c1.812,0.182,29.482,3.291,29.837,3.344c2.045,2.71,4.081,5.408,6.2,8.216
		c-2.638,1.506-5.231,2.985-7.845,4.477c-0.729-0.407-1.421-0.789-2.108-1.18c-8.525-4.843-17.05-9.686-25.574-14.531
		c-0.17-0.097-0.33-0.213-0.494-0.32L4.193,42.455z"/>
	<path fill="#FFFFFF" d="M32.483,43.796c-1.185-0.091-28.203-3.097-28.841-3.172c0.474-0.529,17.497-10.233,18.616-10.56
		c0.04,0.074,10.175,13.659,10.222,13.746L32.483,43.796z"/>
	<path fill="#FFFFFF" d="M31.784,60.758c0.808,0.142,17.171,9.327,18.7,10.482c-9.67,1.102-19.448,2.209-29.016,3.263
		C21.432,74.432,28.398,65.246,31.784,60.758z"/>
	<path fill="#FFFFFF" d="M21.376,13.31C24.789,8.785,28.068,4.438,31.416,0c5.885,3.342,11.729,6.661,17.573,9.979
		c-0.003,0.063-0.005,0.126-0.008,0.189C39.869,11.205,30.758,12.242,21.376,13.31z"/>
	<path fill="#FFFFFF" d="M1.009,98.419c0-6.589,0-13.179,0-19.869c5.523-0.629,10.994-1.252,16.666-1.898
		c-5.572,7.387-11.02,14.61-16.468,21.832C1.141,98.462,1.075,98.44,1.009,98.419z"/>
	<path fill="#FFFFFF" d="M29.138,0.206c-3.321,4.402-6.718,8.909-10.077,13.362c-5.578,0.636-11.467,1.312-17.055,1.949
		C1.986,15.475,29.107,0.159,29.138,0.206z"/>
	<path fill="#FFFFFF" d="M34.939,44.192c-3.375-4.474-10.14-13.537-10.14-13.537c8.898,5.055,18.016,10.241,26.914,15.296
		c-0.013,0.048-0.027,0.096-0.04,0.143C46.113,45.463,40.554,44.831,34.939,44.192z"/>
	<path fill="#FFFFFF" d="M2.405,76.644c0.228-0.176,26.398-15.113,26.659-15.098c-3.321,4.405-6.642,8.811-9.994,13.257
		c-1.733,0.201-15.493,1.719-16.68,1.823L2.405,76.644z"/>
	<path fill="#FFFFFF" d="M12.742,24.755c2.359,1.342,4.695,2.671,7.182,4.086C13.971,32.224,7.957,35.644,2.13,38.955
		C2.092,38.915,9.181,29.476,12.742,24.755z"/>
	<path fill="#FFFFFF" d="M34.076,59.466c2.472-1.41,4.764-2.717,7.175-4.092c3.526,4.672,7.034,9.321,10.543,13.97
		c-0.038,0.041-0.075,0.082-0.113,0.122C45.865,66.163,40.049,62.859,34.076,59.466z"/>
	<path fill="#FFFFFF" d="M12.288,22.551c-3.141-1.79-6.56-3.729-9.623-5.475c0.006-0.065,9.984-1.097,15.002-1.67
		C15.827,17.852,14.099,20.147,12.288,22.551z"/>
	<path fill="#FFFFFF" d="M36.606,45.959c4.987,0.568,14.593,1.806,14.611,1.879c-3.049,1.741-6.099,3.482-9.224,5.266
		C40.212,50.742,38.464,48.424,36.606,45.959z"/>
	<path fill="#FFFFFF" d="M2.391,76.628c-0.035,0.027-0.07,0.053-0.071,0.054c0.002-0.001,0.044-0.019,0.085-0.037
		C2.405,76.644,2.391,76.628,2.391,76.628z"/>
	<path fill="#FFFFFF" d="M4.21,42.461c-0.018-0.016-0.037-0.031-0.055-0.047c0.013,0.013,0.025,0.027,0.038,0.04
		C4.193,42.455,4.21,42.461,4.21,42.461z"/>
	<polygon fill="#FFFFFF" points="32.48,43.81 32.528,43.838 32.483,43.796 	"/>
</g>
</svg>
